<?xml version="1.0" encoding="iso-8859-1"?>
<!DOCTYPE svg PUBLIC "-//W3C//DTD SVG 1.1//EN" "http://www.w3.org/Graphics/SVG/1.1/DTD/svg11.dtd" [
    <!ENTITY ns_flows "http://ns.adobe.com/Flows/1.0/">
    <!ENTITY ns_extend "http://ns.adobe.com/Extensibility/1.0/">
    <!ENTITY ns_ai "http://ns.adobe.com/AdobeIllustrator/10.0/">
    <!ENTITY ns_graphs "http://ns.adobe.com/Graphs/1.0/">
]>
<!-- Generator: Adobe Illustrator 19.0.0, SVG Export Plug-In . SVG Version: 6.00 Build 0)  -->
<svg version="1.1" id="Layer_1" xmlns:x="&ns_extend;" xmlns:i="&ns_ai;" xmlns:graph="&ns_graphs;"
	 xmlns="http://www.w3.org/2000/svg" xmlns:xlink="http://www.w3.org/1999/xlink" xmlns:a="http://ns.adobe.com/AdobeSVGViewerExtensions/3.0/"
	 x="0px" y="0px" viewBox="0 0 1500 1500" style="enable-background:new 0 0 1500 1500;" xml:space="preserve">
<g id="XMLID_14_">
	<path id="XMLID_5714_" style="fill:#27262E;" d="M548.682,1029.268c10.243-24.862-9.56-24.603-25.696-26.574
		c-16.161-1.974-32.215-4.161-47.524-9.839c-5.696-2.112-14.37-1.815-14.752-10.161c-0.34-7.424,7.329-9.889,12.409-13.661
		c0.651-0.483,1.36-0.886,2.037-1.334c32.599-21.628,32.843-21.737,17.199-56.865c-5.478-12.3-3.327-19.657,10.887-18.228
		c30.605,3.077,61.674,2.911,91.58,11.374c13.859,3.922,26.401,9.799,26.058,27.386c-0.26,13.346,7.665,11.598,16.314,9.359
		c28.249-7.311,56.693-13.919,84.767-21.842c59.904-16.905,120.65-24.208,182.892-19.665c20.873,1.523,32.674,11.116,31.097,31.833
		c-1.458,19.157,8.426,24.459,24.258,29.319c25.474,7.82,51.466,15.318,73.648,31.143c5.095,3.635,12.222,7.555,10.57,14.925
		c-1.883,8.399-10.461,5.803-16.402,6.495c-26.46,3.082-26.474,2.935-14.003,26.582c1.135,2.153,2.563,4.247,3.202,6.55
		c2.671,9.639,14.067,19.952,5.4,28.781c-8.316,8.471-17.668-2.649-25.991-6.558c-31.317-14.711-65.104-11.674-98.083-13.725
		c-18.975-1.18-35.257-1.156-36.438-27.585c-0.75-16.788-16.905-9.319-25.388-7.63c-42.915,8.54-85.466,18.89-128.27,28.013
		c-34.849,7.427-69.337,17.598-105.418,17.268C569.869,1064.325,550.327,1051.843,548.682,1029.268z M889.174,998.514
		c7.265-4.407,23.29,7.696,27.114-8.594c4.416-18.816,5.916-38.419,7.425-57.778c0.993-12.731-6.57-19.541-19.355-19.758
		c-36.427-0.618-72.584-2.427-109.182,3.264c-62.724,9.754-121.567,34.949-184.664,43c-38.119,4.864-37.865,6.566-43.015,44.911
		c-0.646,4.813-1.437,9.712-3.013,14.278c-6.991,20.26,2.905,27.906,21.393,31.611c30.665,6.146,59.803-2.645,89.001-8.346
		C745.661,1027.281,815.158,1007.009,889.174,998.514z M891.932,1037.789c39.323,4.792,77.316,3.195,114.427,18.495
		c-4.258-16.947-18.499-27.285-20.205-40.667c-3.148-24.699,23.46-6.61,31.84-19.034c-20.896-12.921-44.451-18.894-67.232-26.525
		c-11.49-3.849-20.822,1.421-20.387,13.468C931.373,1011.201,921.177,1030.066,891.932,1037.789z M483,980.771
		c17.289,7.113,33.751,6.105,49.184,9.681c17.697,4.099,26.423,0.816,23.255-19.595c-3.395-21.878,7.777-35.058,27.568-42.774
		c5.167-2.014,13.415-0.06,15.143-9.565c-26.15-10.602-53.988-10.026-81.016-13.69c-8.952-1.214-11.4,3.79-7.454,12.14
		c5.401,11.429,18.124,22.164,13.171,34.919c-4.694,12.089-21.266,13.418-31.533,21.141
		C488.967,974.796,486.973,977.041,483,980.771z"/>
	<g id="XMLID_28_">
		<g id="XMLID_91_">
			<path id="XMLID_97_" style="fill:#27262E;" d="M715.7,513.71h-5.045c-4.484,0-8.353,1.625-11.604,4.877s-4.877,7.12-4.877,11.604
				v161.784c0,4.709,1.625,8.689,4.877,11.94s7.12,4.877,11.604,4.877h5.045v7.4h-80.724v-7.4h5.045
				c4.485,0,8.353-1.625,11.604-4.877s4.877-7.231,4.877-11.94V553.063l-47.762,116.041l-8.745,21.526l-10.427,25.563h-19.508
				l-0.336,0.336l-16.481-41.708l-41.034-102.923v120.077c0,4.709,1.625,8.689,4.877,11.94s7.119,4.877,11.604,4.877h5.045v7.4
				h-61.216v-7.4h5.045c4.484,0,8.353-1.625,11.604-4.877s4.877-7.231,4.877-11.94V530.191c0-4.484-1.625-8.353-4.877-11.604
				s-7.12-4.877-11.604-4.877h-5.045v-7.399h53.816l4.709,11.772l57.852,145.303l1.345,3.363l2.691-6.727l61.888-149.675
				l1.682-4.036H715.7V513.71z"/>
			<path id="XMLID_94_" style="fill:#27262E;" d="M845.538,704.42c2.691,2.915,5.606,4.373,8.745,4.373v7.4
				c-9.866,0-18.274-1.233-25.227-3.7c-6.951-2.467-12.557-6.503-16.817-12.109c-14.575,11.885-30.383,17.827-47.425,17.827
				c-14.575,0-26.123-3.924-34.645-11.772c-8.745-7.624-13.117-17.715-13.117-30.271c0-8.297,1.794-15.584,5.382-21.863
				c6.054-12.557,16.705-22.872,31.953-30.944c6.503-3.363,13.847-6.222,22.03-8.577c8.185-2.354,17.322-4.092,27.413-5.213h0.336
				c0-1.794-0.056-3.532-0.168-5.214c-0.112-1.682-0.168-3.419-0.168-5.213v-2.018c-0.225-3.587-0.561-7.063-1.009-10.427
				c-0.897-5.83-2.131-10.314-3.7-13.454c-2.019-3.587-4.597-6.502-7.736-8.745c-3.363-2.018-6.839-3.027-10.427-3.027
				c-4.484,0-7.848,1.345-10.09,4.036c-1.346,1.345-2.019,3.027-2.019,5.045c0,1.793,0.561,3.924,1.682,6.391
				c2.242,3.812,3.363,7.512,3.363,11.1c0,3.363-0.673,6.391-2.018,9.081c-1.794,3.588-4.204,6.503-7.231,8.745
				c-3.027,2.243-6.447,3.588-10.259,4.036c-0.448,0-0.841,0.056-1.178,0.168c-0.336,0.112-0.729,0.168-1.177,0.168
				c-5.83,0-10.819-1.906-14.968-5.718s-6.446-8.633-6.896-14.463c0-0.225-0.056-0.449-0.168-0.673s-0.168-0.449-0.168-0.673v-0.672
				l0.336-0.673c0-5.83,2.243-11.212,6.728-16.145c4.484-5.157,10.651-9.081,18.499-11.772c7.849-2.915,16.594-4.373,26.235-4.373
				c12.333,0,23.096,2.354,32.29,7.063c9.193,4.933,16.145,11.884,20.854,20.854c1.121,2.466,2.186,4.933,3.195,7.399
				c1.009,2.467,1.737,5.045,2.186,7.736c0.673,4.036,1.01,8.857,1.01,14.463v21.863h0.336v59.197
				C841.502,697.918,842.847,701.505,845.538,704.42z M808.54,694.33c-3.14-6.727-4.709-14.687-4.709-23.881v-44.734
				c-7.849,2.242-14.575,4.709-20.181,7.4c-5.83,3.139-10.651,6.615-14.464,10.427c-2.466,2.466-4.484,4.821-6.054,7.063
				c-4.709,7.176-7.063,15.136-7.063,23.881c0,8.97,2.579,16.145,7.736,21.526c5.157,5.83,11.436,8.745,18.835,8.745
				C790.264,704.756,798.897,701.281,808.54,694.33z"/>
			<path id="XMLID_92_" style="fill:#27262E;" d="M1015.39,562.481c-3.588,0-6.783,1.065-9.586,3.195
				c-2.803,2.13-4.765,4.765-5.886,7.904l-0.673,2.354l-53.816,175.911c-2.018,6.054-4.372,10.875-7.063,14.463
				c-2.69,3.588-5.661,6.334-8.913,8.24c-3.251,1.906-6.614,3.195-10.09,3.868s-7.12,1.009-10.932,1.009
				c-4.036,0-8.689-0.896-13.959-2.69s-10.37-4.484-15.304-8.072c-4.933-3.588-9.081-8.017-12.444-13.286
				c-3.364-5.27-5.046-11.38-5.046-18.332s2.411-12.837,7.231-17.658c4.821-4.821,10.707-7.231,17.658-7.231
				c7.176,0,13.174,2.411,17.995,7.231s7.231,10.707,7.231,17.658c0,6.279-1.906,11.66-5.718,16.145
				c-1.794,2.243-2.69,4.261-2.69,6.055c0,1.346,0.448,2.467,1.345,3.363c2.019,2.691,4.485,4.036,7.399,4.036
				c2.915,0,5.999-1.009,9.25-3.027c3.252-2.018,6.447-7.399,9.586-16.145l9.754-31.28h-23.544l-3.027-9.754l-0.673-1.682
				l-0.336-1.682l-38.008-123.776l-0.673-2.691l-0.336-0.673l-1.009-3.027c-1.122-3.14-3.084-5.662-5.887-7.568
				c-2.803-1.906-5.886-2.859-9.249-2.859h-5.046v-7.399h77.024v7.399h-5.045c-4.261,0-7.4,1.346-9.418,4.037
				c-1.57,2.018-2.354,4.26-2.354,6.727c0,1.122,0.224,2.467,0.673,4.037l34.644,113.35l33.972-111.332v-0.673l0.673-1.345
				c0.448-1.57,0.672-2.915,0.672-4.037c0-2.466-0.672-4.708-2.018-6.727c-2.242-2.691-5.494-4.037-9.754-4.037h-5.046v-7.399
				h53.479v7.399H1015.39z"/>
		</g>
	</g>
	<g id="XMLID_1_">
		<g id="XMLID_154_">
			<path id="XMLID_168_" style="fill:#27262E;" d="M524.566,879.226c2.964,0,5.854-0.741,8.669-2.223
				c4.149-1.927,7.929-4.298,11.337-7.113c3.853-3.261,7.632-7.039,11.337-11.337l3.334,4.445
				c-5.187,5.928-9.855,10.67-14.004,14.227s-8.521,6.076-13.115,7.559c-4.001,1.481-8.966,2.223-14.894,2.223
				c-8.743,0-16.82-2.074-24.229-6.225c-7.113-4.297-12.596-10.225-16.449-17.783c-4.001-7.558-6.002-16.004-6.002-25.341
				c0-7.706,1.334-15.115,4.001-22.229c1.334-3.557,2.927-6.854,4.779-9.893c1.853-3.037,3.964-5.891,6.335-8.558
				c4.89-5.335,10.448-9.41,16.672-12.227c6.521-2.815,13.263-4.223,20.228-4.223v4.223c-3.408,0-6.521,0.964-9.336,2.891
				c-2.815,1.926-5.335,4.482-7.558,7.669c-2.223,3.186-4.149,6.854-5.78,11.003s-2.816,8.447-3.557,12.893
				c0,0.297-0.074,0.52-0.222,0.667c0,0.741-0.074,1.26-0.223,1.557v0.667c0,0.296-0.037,0.629-0.111,1
				c-0.074,0.37-0.111,0.704-0.111,1c-0.148,1.186-0.259,2.334-0.333,3.445c-0.074,1.111-0.111,2.26-0.111,3.445v0.667
				c0,9.04,1.259,17.339,3.779,24.896c2.667,7.41,6.224,13.041,10.67,16.895c3.408,2.667,7.039,4.445,10.892,5.335
				C521.899,879.077,523.232,879.226,524.566,879.226z M530.568,790.532c0-1.186-0.371-2.224-1.112-3.112
				c-1.482-1.778-3.779-2.668-6.891-2.668v-4.223c6.373,0,12.004,0.963,16.895,2.89c5.187,1.778,9.336,4.371,12.448,7.78
				c2.667,2.964,4.149,6.521,4.445,10.67v1.778h-0.222c-0.296,3.853-1.778,7.039-4.446,9.558c-2.667,2.52-5.928,3.779-9.781,3.779
				c-4.001,0-7.41-1.444-10.225-4.335c-2.816-2.89-4.224-6.335-4.224-10.336c0-2.668,0.667-5.112,2-7.336
				C530.198,793.348,530.568,791.865,530.568,790.532z"/>
			<path id="XMLID_165_" style="fill:#27262E;" d="M633.26,784.752c6.521,2.816,12.152,6.595,16.894,11.337
				s8.521,10.374,11.337,16.895s4.224,13.411,4.224,20.673c0,7.41-1.408,14.338-4.224,20.784s-6.595,12.078-11.337,16.894
				c-4.742,4.816-10.374,8.633-16.894,11.448s-13.411,4.224-20.673,4.224c-7.41,0-14.338-1.408-20.784-4.224
				s-12.078-6.632-16.894-11.448c-4.816-4.815-8.632-10.447-11.448-16.894c-2.816-6.446-4.224-13.374-4.224-20.784
				c0-7.262,1.408-14.152,4.224-20.673c2.815-6.521,6.631-12.152,11.448-16.895s10.448-8.521,16.894-11.337
				c6.446-2.815,13.375-4.223,20.784-4.223C619.849,780.529,626.739,781.937,633.26,784.752z M623.59,871.334
				c3.482-2.148,6.521-5.075,9.114-8.78c2.593-3.704,4.631-8.039,6.113-13.004c1.481-4.964,2.223-10.263,2.223-15.894
				s-0.741-10.93-2.223-15.894c-1.482-4.965-3.52-9.3-6.113-13.004c-2.593-3.705-5.631-6.632-9.114-8.78
				c-3.482-2.149-7.15-3.224-11.003-3.224c-4.001,0-7.743,1.074-11.226,3.224c-3.482,2.148-6.521,5.075-9.114,8.78
				c-2.594,3.704-4.631,8.039-6.113,13.004c-1.482,4.964-2.223,10.263-2.223,15.894s0.741,10.93,2.223,15.894
				c1.482,4.965,3.52,9.3,6.113,13.004c2.593,3.705,5.631,6.632,9.114,8.78c3.482,2.149,7.225,3.224,11.226,3.224
				C616.44,874.558,620.108,873.483,623.59,871.334z"/>
			<path id="XMLID_163_" style="fill:#27262E;" d="M745.846,780.974c-2.741,2.52-6.039,3.778-9.892,3.778
				c-0.593,0-1.111-0.073-1.557-0.222c-2.519-0.297-4.705-1.074-6.557-2.334s-3.372-2.927-4.557-5.002
				c-1.186-2.371-1.778-4.668-1.778-6.891c0-1.334,0.186-2.631,0.556-3.891c0.371-1.259,0.853-2.481,1.445-3.667
				c0.889-1.631,1.333-3.038,1.333-4.224s-0.371-2.297-1.111-3.335c-1.63-1.778-3.927-2.667-6.891-2.667
				c-2.371,0-4.668,0.667-6.891,2.001c-2.371,1.63-4.075,3.557-5.113,5.779c-1.037,1.926-1.852,4.891-2.445,8.892
				c-0.296,2.223-0.519,4.89-0.667,8.002v0.444c0,1.186-0.074,2.149-0.222,2.891h14.449v9.78h-14.227v80.691
				c0,3.112,1.074,5.742,3.223,7.892c2.149,2.148,4.705,3.223,7.669,3.223h3.334v4.891h-53.35v-4.891h3.334
				c2.964,0,5.52-1.074,7.669-3.223c2.149-2.149,3.223-4.779,3.223-7.892V790.31h-10.67v-9.78h11.115
				c0.148-0.741,0.222-1.408,0.222-2.001s0.074-1.186,0.222-1.778c0.741-3.557,1.927-6.891,3.557-10.003
				c3.26-6.076,7.78-10.596,13.56-13.56c6.076-3.261,13.264-4.891,21.563-4.891c6.521,0,12.226,0.963,17.116,2.89
				c5.038,1.63,9.188,4.224,12.448,7.78c2.964,3.408,4.445,7.039,4.445,10.893v1.778
				C750.106,775.342,748.587,778.454,745.846,780.974z"/>
			<path id="XMLID_161_" style="fill:#27262E;" d="M835.643,780.974c-2.742,2.52-6.039,3.778-9.893,3.778
				c-0.593,0-1.111-0.073-1.556-0.222c-2.52-0.297-4.705-1.074-6.558-2.334s-3.371-2.927-4.557-5.002
				c-1.186-2.371-1.778-4.668-1.778-6.891c0-1.334,0.185-2.631,0.556-3.891c0.37-1.259,0.852-2.481,1.444-3.667
				c0.89-1.631,1.334-3.038,1.334-4.224s-0.37-2.297-1.111-3.335c-1.63-1.778-3.927-2.667-6.892-2.667
				c-2.371,0-4.668,0.667-6.891,2.001c-2.371,1.63-4.075,3.557-5.112,5.779c-1.038,1.926-1.853,4.891-2.445,8.892
				c-0.297,2.223-0.519,4.89-0.667,8.002v0.444c0,1.186-0.074,2.149-0.223,2.891h14.449v9.78h-14.227v80.691
				c0,3.112,1.074,5.742,3.224,7.892c2.148,2.148,4.705,3.223,7.669,3.223h3.334v4.891h-53.35v-4.891h3.334
				c2.964,0,5.521-1.074,7.669-3.223c2.149-2.149,3.224-4.779,3.224-7.892V790.31h-10.67v-9.78h11.114
				c0.148-0.741,0.223-1.408,0.223-2.001s0.074-1.186,0.222-1.778c0.741-3.557,1.927-6.891,3.557-10.003
				c3.261-6.076,7.78-10.596,13.561-13.56c6.075-3.261,13.263-4.891,21.562-4.891c6.521,0,12.227,0.963,17.116,2.89
				c5.039,1.63,9.188,4.224,12.448,7.78c2.964,3.408,4.446,7.039,4.446,10.893v1.778
				C839.902,775.342,838.384,778.454,835.643,780.974z"/>
			<path id="XMLID_158_" style="fill:#27262E;" d="M884.209,881.671c-6.965,3.557-14.671,5.335-23.118,5.335
				c-8.892,0-16.894-2.223-24.007-6.669c-6.817-4.149-12.301-10.226-16.45-18.228c-3.853-8.002-5.779-16.82-5.779-26.452
				c0-10.374,2.148-19.858,6.446-28.453c4.594-9.04,10.521-15.783,17.783-20.229c7.262-4.891,15.561-7.336,24.896-7.336
				c7.854,0,15.042,1.778,21.563,5.335s11.633,8.521,15.338,14.894c3.853,6.817,6.002,15.561,6.446,26.23h-66.021v3.112
				c0,11.559,1.408,20.857,4.224,27.896c2.815,7.04,6.521,12.264,11.114,15.672c2.371,1.778,4.891,2.89,7.559,3.334
				c1.63,0.445,3.26,0.667,4.891,0.667c0.889,0,1.852-0.074,2.89-0.222c2.667-0.297,5.298-0.927,7.891-1.89
				c2.594-0.964,5.002-2.112,7.225-3.445c5.335-2.964,10.67-6.966,16.005-12.004l0.89,1.111l2.223,3.557
				C898.51,872.038,891.174,877.966,884.209,881.671z M856.867,788.198c-2.223,0.963-4.335,2.593-6.335,4.89
				c-2.001,2.298-3.742,5.335-5.224,9.114c-1.482,3.779-2.594,8.41-3.335,13.894h40.68c-0.593-8.447-2.408-15.338-5.446-20.674
				c-3.038-5.334-7.299-8.15-12.782-8.446c-0.296-0.148-0.667-0.223-1.111-0.223C861.239,786.753,859.09,787.234,856.867,788.198z"
				/>
			<path id="XMLID_155_" style="fill:#27262E;" d="M987.565,881.671c-6.965,3.557-14.671,5.335-23.118,5.335
				c-8.892,0-16.895-2.223-24.008-6.669c-6.816-4.149-12.3-10.226-16.449-18.228c-3.853-8.002-5.779-16.82-5.779-26.452
				c0-10.374,2.148-19.858,6.446-28.453c4.594-9.04,10.521-15.783,17.783-20.229c7.262-4.891,15.561-7.336,24.896-7.336
				c7.854,0,15.042,1.778,21.563,5.335s11.633,8.521,15.338,14.894c3.853,6.817,6.002,15.561,6.446,26.23h-66.021v3.112
				c0,11.559,1.408,20.857,4.224,27.896c2.816,7.04,6.521,12.264,11.115,15.672c2.371,1.778,4.89,2.89,7.558,3.334
				c1.63,0.445,3.26,0.667,4.89,0.667c0.89,0,1.853-0.074,2.891-0.222c2.667-0.297,5.298-0.927,7.891-1.89
				c2.594-0.964,5.002-2.112,7.225-3.445c5.335-2.964,10.67-6.966,16.005-12.004l0.89,1.111l2.223,3.557
				C1001.866,872.038,994.53,877.966,987.565,881.671z M960.224,788.198c-2.223,0.963-4.335,2.593-6.335,4.89
				c-2.001,2.298-3.742,5.335-5.224,9.114c-1.482,3.779-2.594,8.41-3.335,13.894h40.68c-0.593-8.447-2.408-15.338-5.446-20.674
				c-3.038-5.334-7.299-8.15-12.782-8.446c-0.296-0.148-0.666-0.223-1.111-0.223C964.596,786.753,962.446,787.234,960.224,788.198z"
				/>
		</g>
	</g>
	<g id="XMLID_12_">
		<g id="XMLID_196_">
			<path id="XMLID_208_" style="fill:#27262E;" d="M678.69,1026.125l-18.666-16.865c-0.328-0.282-0.872-0.341-1.256-0.078
				c-0.489,0.195-0.649,0.673-0.537,1.18l3.826,17.387c0.39,1.773-0.795,3.628-2.568,4.018l-2.194,0.482
				c-1.773,0.391-3.542-0.813-3.932-2.587l-12.925-58.747c-0.39-1.771,0.729-3.521,2.502-3.912l2.194-0.482
				c1.772-0.39,3.607,0.71,3.997,2.481l3.845,17.473c0.111,0.507,0.457,0.873,0.982,0.846c0.459,0.076,0.928-0.204,1.107-0.597
				l9.863-23.143c0.697-1.658,2.733-2.46,4.391-1.764l2.051,0.876c1.658,0.697,2.441,2.648,1.763,4.393l-12.445,29.107
				c-0.339,0.871-0.313,1.396,0.567,2.177l23.41,21.132c1.347,1.297,1.455,3.396,0.243,4.725l-1.494,1.655
				C682.203,1027.21,680.019,1027.337,678.69,1026.125z"/>
			<path id="XMLID_206_" style="fill:#27262E;" d="M685.314,957.68c1.772-0.391,3.626,0.793,4.016,2.566l12.907,58.662
				c0.39,1.773-0.814,3.543-2.586,3.934l-2.195,0.482c-1.772,0.39-3.522-0.729-3.913-2.503l-12.906-58.662
				c-0.39-1.773,0.71-3.607,2.483-3.997L685.314,957.68z"/>
			<path id="XMLID_204_" style="fill:#27262E;" d="M715.051,952.464c7.09-1.561,14.093,2.916,15.634,9.922l1.355,6.162l0.074,0.337
				c0.316,1.436-0.625,2.792-1.975,3.09l-3.461,0.761c-1.436,0.316-2.773-0.539-3.09-1.975l-1.207-5.486
				c-0.987-2.88-4.039-4.686-7.078-4.018l-3.039,0.669c-3.291,0.724-5.398,4.02-4.674,7.311l7.725,35.113
				c0.724,3.293,4.02,5.398,7.312,4.675l3.039-0.669c3.039-0.669,5.051-3.589,4.719-6.701l-1.708-7.766
				c-0.315-1.435,0.54-2.773,1.975-3.089l3.461-0.762c1.351-0.297,2.774,0.54,3.09,1.975l1.745,7.935
				c0.02,0.085,0.02,0.085,0.037,0.168l0.148,0.676c1.561,7.09-2.916,14.093-10.007,15.653l-6.415,1.411
				c-7.006,1.541-14.008-2.937-15.568-10.026l-8.45-38.404c-1.541-7.006,2.935-14.009,9.941-15.55L715.051,952.464z"/>
			<path id="XMLID_202_" style="fill:#27262E;" d="M773.062,1005.362l-18.667-16.865c-0.326-0.282-0.871-0.341-1.256-0.078
				c-0.487,0.195-0.648,0.673-0.537,1.18l3.826,17.387c0.39,1.773-0.795,3.627-2.567,4.018l-2.194,0.482
				c-1.774,0.391-3.542-0.813-3.933-2.587l-12.925-58.747c-0.391-1.771,0.729-3.521,2.502-3.912l2.195-0.482
				c1.771-0.391,3.606,0.71,3.996,2.481l3.845,17.473c0.111,0.507,0.458,0.873,0.982,0.846c0.459,0.076,0.929-0.204,1.107-0.597
				l9.865-23.143c0.696-1.658,2.732-2.461,4.391-1.764l2.051,0.876c1.657,0.696,2.441,2.648,1.763,4.392L755.06,975.43
				c-0.339,0.871-0.312,1.396,0.567,2.177l23.41,21.131c1.348,1.297,1.455,3.396,0.243,4.726l-1.494,1.655
				C776.574,1006.446,774.39,1006.574,773.062,1005.362z"/>
			<path id="XMLID_199_" style="fill:#27262E;" d="M805.007,931.345c1.772-0.39,3.626,0.794,4.017,2.567l12.906,58.662
				c0.39,1.773-0.814,3.543-2.586,3.933l-2.195,0.483c-1.772,0.39-3.522-0.729-3.913-2.503l-12.906-58.662
				c-0.39-1.773,0.71-3.607,2.483-3.997L805.007,931.345z"/>
			<path id="XMLID_197_" style="fill:#27262E;" d="M820.454,927.946c2.429-0.623,4.113,0.6,5.179,2.223l20.576,31.578
				c0.14,0.234,0.43,0.348,0.768,0.273c0.318-0.159,0.517-0.467,0.442-0.805l-7.521-34.186c-0.39-1.771,0.729-3.522,2.503-3.912
				l2.193-0.482c1.773-0.391,3.523,0.729,3.913,2.5l12.926,58.747c0.39,1.773-0.729,3.524-2.502,3.915l-2.194,0.482
				c-2.025,0.445-3.674-0.607-4.758-2.317l-20.855-32.046c-0.141-0.236-0.515-0.33-0.834-0.171
				c-0.253,0.056-0.451,0.364-0.377,0.702l7.633,34.69c0.391,1.773-0.729,3.524-2.586,3.933l-2.109,0.465
				c-1.857,0.408-3.608-0.712-3.998-2.485l-12.926-58.747c-0.39-1.771,0.73-3.521,2.587-3.93L820.454,927.946z"/>
		</g>
	</g>
	<g id="XMLID_50_">
		<g id="XMLID_213_">
			<path id="XMLID_245_" style="fill:#27262E;" d="M544.099,1090.672c5.335,2.223,10.003,5.298,14.004,9.225
				c4.001,3.928,7.188,8.484,9.559,13.671c2.371,5.188,3.631,10.744,3.779,16.672v19.34c0,6.075-1.149,11.818-3.446,17.228
				c-2.297,5.408-5.446,10.113-9.447,14.115c-4.001,4.001-8.707,7.15-14.115,9.447c-5.409,2.297-11.152,3.445-17.228,3.445
				c-4.891,0-9.559-0.778-14.004-2.334s-8.521-3.668-12.226-6.335c-5.631,5.779-14.449,8.669-26.453,8.669v-4.891
				c2.075,0,4.001-0.963,5.78-2.89s2.667-4.298,2.667-7.113v-100.92c0-3.111-1.037-5.409-3.112-6.891
				c-1.481-1.037-3.112-1.556-4.89-1.556c-0.889,0-1.853,0.147-2.89,0.444l-3.334,0.889v-4.89l39.123-10.893v36.678
				c5.928-2.964,12.374-4.445,19.339-4.445C533.132,1087.338,538.764,1088.449,544.099,1090.672z M541.098,1105.343
				c-3.779-3.853-8.41-5.779-13.893-5.779c-5.335,0-9.892,1.89-13.671,5.668c-3.779,3.779-5.668,8.336-5.668,13.671v43.125
				c0,5.335,1.89,9.892,5.668,13.671c3.779,3.778,8.336,5.668,13.671,5.668c5.483,0,10.114-1.89,13.893-5.668
				c3.779-3.779,5.668-8.336,5.668-13.671v-42.902C546.766,1113.79,544.876,1109.196,541.098,1105.343z"/>
			<path id="XMLID_242_" style="fill:#27262E;" d="M651.904,1188.479c-6.965,3.557-14.671,5.335-23.118,5.335
				c-8.892,0-16.894-2.223-24.007-6.669c-6.817-4.149-12.3-10.226-16.449-18.228c-3.854-8.002-5.78-16.82-5.78-26.452
				c0-10.374,2.149-19.858,6.446-28.453c4.594-9.04,10.522-15.783,17.783-20.229c7.262-4.891,15.561-7.336,24.896-7.336
				c7.854,0,15.042,1.778,21.562,5.335s11.633,8.521,15.338,14.894c3.853,6.817,6.001,15.561,6.446,26.23h-66.02v3.112
				c0,11.559,1.408,20.857,4.224,27.896c2.815,7.04,6.521,12.264,11.114,15.672c2.371,1.778,4.891,2.89,7.558,3.334
				c1.63,0.445,3.261,0.667,4.891,0.667c0.889,0,1.853-0.074,2.89-0.222c2.667-0.297,5.298-0.927,7.892-1.89
				c2.593-0.964,5.001-2.112,7.224-3.445c5.335-2.964,10.67-6.966,16.005-12.004l0.889,1.111l2.223,3.557
				C666.205,1178.847,658.869,1184.774,651.904,1188.479z M624.562,1095.007c-2.223,0.963-4.334,2.593-6.335,4.89
				c-2.001,2.298-3.742,5.335-5.224,9.114s-2.593,8.41-3.334,13.894h40.679c-0.593-8.447-2.408-15.338-5.446-20.674
				c-3.038-5.334-7.299-8.15-12.782-8.446c-0.296-0.148-0.667-0.223-1.111-0.223
				C628.934,1093.562,626.785,1094.043,624.562,1095.007z"/>
			<path id="XMLID_240_" style="fill:#27262E;" d="M755.598,1087.782c-2.742,2.52-6.039,3.778-9.893,3.778
				c-0.593,0-1.111-0.073-1.556-0.222c-2.52-0.297-4.705-1.074-6.558-2.334s-3.371-2.927-4.557-5.002
				c-1.186-2.371-1.778-4.668-1.778-6.891c0-1.334,0.185-2.631,0.556-3.891c0.37-1.259,0.852-2.481,1.444-3.667
				c0.89-1.631,1.334-3.038,1.334-4.224s-0.37-2.297-1.111-3.335c-1.63-1.778-3.927-2.667-6.891-2.667
				c-2.371,0-4.668,0.667-6.891,2.001c-2.371,1.63-4.075,3.557-5.112,5.779c-1.038,1.926-1.853,4.891-2.445,8.892
				c-0.296,2.223-0.519,4.89-0.667,8.002v0.444c0,1.186-0.074,2.149-0.222,2.891h14.449v9.78h-14.227v80.691
				c0,3.112,1.074,5.742,3.223,7.892c2.149,2.148,4.705,3.223,7.669,3.223h3.334v4.891h-53.35v-4.891h3.334
				c2.964,0,5.52-1.074,7.669-3.223c2.149-2.149,3.223-4.779,3.223-7.892v-80.691h-10.67v-9.78h11.114
				c0.148-0.741,0.223-1.408,0.223-2.001s0.074-1.186,0.222-1.778c0.741-3.557,1.926-6.891,3.557-10.003
				c3.26-6.076,7.78-10.596,13.56-13.56c6.076-3.261,13.263-4.891,21.562-4.891c6.521,0,12.227,0.963,17.116,2.89
				c5.039,1.63,9.188,4.224,12.448,7.78c2.964,3.408,4.446,7.039,4.446,10.893v1.778
				C759.857,1082.15,758.339,1085.263,755.598,1087.782z"/>
			<path id="XMLID_237_" style="fill:#27262E;" d="M805.276,1091.561c6.521,2.816,12.152,6.595,16.895,11.337
				s8.521,10.374,11.337,16.895c2.815,6.521,4.223,13.411,4.223,20.673c0,7.41-1.407,14.338-4.223,20.784
				c-2.816,6.446-6.595,12.078-11.337,16.894c-4.742,4.816-10.374,8.633-16.895,11.448s-13.411,4.224-20.673,4.224
				c-7.41,0-14.338-1.408-20.784-4.224s-12.078-6.632-16.894-11.448c-4.816-4.815-8.633-10.447-11.448-16.894
				s-4.224-13.374-4.224-20.784c0-7.262,1.408-14.152,4.224-20.673s6.632-12.152,11.448-16.895
				c4.815-4.742,10.447-8.521,16.894-11.337c6.446-2.815,13.374-4.223,20.784-4.223
				C791.865,1087.338,798.756,1088.745,805.276,1091.561z M795.606,1178.143c3.483-2.148,6.521-5.075,9.114-8.78
				c2.594-3.704,4.631-8.039,6.113-13.004c1.481-4.964,2.223-10.263,2.223-15.894s-0.741-10.93-2.223-15.894
				c-1.482-4.965-3.52-9.3-6.113-13.004c-2.594-3.705-5.631-6.632-9.114-8.78c-3.482-2.149-7.149-3.224-11.003-3.224
				c-4.001,0-7.743,1.074-11.226,3.224c-3.482,2.148-6.521,5.075-9.114,8.78c-2.593,3.704-4.631,8.039-6.112,13.004
				c-1.482,4.964-2.224,10.263-2.224,15.894s0.741,10.93,2.224,15.894c1.481,4.965,3.52,9.3,6.112,13.004
				c2.594,3.705,5.632,6.632,9.114,8.78c3.482,2.149,7.225,3.224,11.226,3.224C788.457,1181.366,792.124,1180.292,795.606,1178.143z
				"/>
			<path id="XMLID_217_" style="fill:#27262E;" d="M922.42,1111.123v1.777c-0.297,3.705-1.815,6.817-4.557,9.337
				c-2.742,2.519-6.039,3.778-9.893,3.778h-1.556c-5.039-0.74-8.743-3.26-11.114-7.558c-1.186-2.074-1.778-4.372-1.778-6.891
				c0-2.815,0.667-5.261,2-7.336c0.89-1.63,1.334-3.112,1.334-4.445c0-1.186-0.37-2.298-1.111-3.335
				c-1.63-1.778-3.927-2.667-6.892-2.667c-2.519,0.296-4.815,1.037-6.891,2.223c-2.223,1.334-3.927,3.187-5.112,5.558
				c-1.038,1.926-1.853,4.89-2.445,8.892c-0.148,1.186-0.297,2.408-0.444,3.667c-0.148,1.26-0.223,2.705-0.223,4.335v59.352
				c0,3.112,1.074,5.742,3.224,7.892c2.148,2.148,4.705,3.223,7.669,3.223h3.334v4.891h-53.35v-4.891h3.334
				c2.964,0,5.521-1.074,7.669-3.223c2.149-2.149,3.224-4.779,3.224-7.892v-67.576c0-3.112-1.037-5.409-3.112-6.891
				c-1.481-1.038-3.112-1.557-4.89-1.557c-0.89,0-1.853,0.148-2.891,0.444l-3.334,0.89v-4.891l39.123-10.892v4.445
				c4.298-1.481,9.188-2.223,14.671-2.223c5.928,0,11.634,0.963,17.116,2.89c5.335,2.075,9.484,4.742,12.448,8.003
				C920.938,1103.713,922.42,1107.27,922.42,1111.123z"/>
			<path id="XMLID_214_" style="fill:#27262E;" d="M997.104,1188.479c-6.965,3.557-14.671,5.335-23.118,5.335
				c-8.892,0-16.894-2.223-24.007-6.669c-6.817-4.149-12.301-10.226-16.45-18.228c-3.853-8.002-5.779-16.82-5.779-26.452
				c0-10.374,2.148-19.858,6.446-28.453c4.594-9.04,10.521-15.783,17.783-20.229c7.262-4.891,15.561-7.336,24.896-7.336
				c7.854,0,15.042,1.778,21.563,5.335s11.633,8.521,15.338,14.894c3.853,6.817,6.002,15.561,6.446,26.23h-66.021v3.112
				c0,11.559,1.408,20.857,4.224,27.896c2.815,7.04,6.521,12.264,11.114,15.672c2.371,1.778,4.891,2.89,7.559,3.334
				c1.63,0.445,3.26,0.667,4.891,0.667c0.889,0,1.852-0.074,2.89-0.222c2.667-0.297,5.298-0.927,7.891-1.89
				c2.594-0.964,5.002-2.112,7.225-3.445c5.335-2.964,10.67-6.966,16.005-12.004l0.89,1.111l2.223,3.557
				C1011.404,1178.847,1004.068,1184.774,997.104,1188.479z M969.762,1095.007c-2.223,0.963-4.335,2.593-6.335,4.89
				c-2.001,2.298-3.742,5.335-5.224,9.114c-1.482,3.779-2.594,8.41-3.335,13.894h40.68c-0.593-8.447-2.408-15.338-5.446-20.674
				c-3.038-5.334-7.299-8.15-12.782-8.446c-0.296-0.148-0.667-0.223-1.111-0.223
				C974.134,1093.562,971.984,1094.043,969.762,1095.007z"/>
		</g>
	</g>
	<g id="XMLID_15_">
		<g id="XMLID_219_">
			<path id="XMLID_235_" style="fill:#27262E;" d="M544.942,1258.309v1.653c-0.276,3.446-1.688,6.341-4.239,8.685
				c-2.55,2.343-5.617,3.515-9.201,3.515h-1.447c-4.687-0.689-8.132-3.032-10.338-7.03c-1.103-1.93-1.654-4.065-1.654-6.409
				c0-2.619,0.62-4.894,1.861-6.823c0.827-1.516,1.24-2.895,1.24-4.135c0-1.103-0.344-2.137-1.034-3.102
				c-1.516-1.654-3.652-2.48-6.409-2.48c-2.343,0.275-4.48,0.965-6.41,2.067c-2.067,1.24-3.653,2.963-4.755,5.169
				c-0.965,1.792-1.723,4.549-2.274,8.27c-0.138,1.104-0.275,2.24-0.414,3.412c-0.138,1.172-0.207,2.516-0.207,4.031v55.204
				c0,2.895,1,5.342,2.998,7.34c1.999,1.999,4.376,2.998,7.133,2.998h3.102v4.549h-49.622v-4.549h3.102
				c2.756,0,5.134-0.999,7.133-2.998c1.999-1.998,2.998-4.445,2.998-7.34v-62.854c0-2.895-0.965-5.031-2.895-6.41
				c-1.378-0.965-2.895-1.447-4.549-1.447c-0.827,0-1.723,0.139-2.688,0.414l-3.102,0.827v-4.549l36.389-10.131v4.135
				c3.997-1.378,8.546-2.067,13.646-2.067c5.514,0,10.82,0.896,15.92,2.688c4.962,1.93,8.821,4.411,11.578,7.443
				S544.942,1254.725,544.942,1258.309z"/>
			<path id="XMLID_232_" style="fill:#27262E;" d="M614.413,1330.26c-6.478,3.308-13.646,4.962-21.502,4.962
				c-8.27,0-15.713-2.067-22.33-6.203c-6.341-3.859-11.44-9.511-15.3-16.953c-3.583-7.443-5.375-15.646-5.375-24.604
				c0-9.648,1.999-18.471,5.996-26.465c4.273-8.408,9.786-14.68,16.541-18.814c6.754-4.549,14.473-6.823,23.157-6.823
				c7.305,0,13.99,1.654,20.055,4.962c6.065,3.309,10.82,7.926,14.266,13.853c3.584,6.341,5.583,14.474,5.996,24.397h-61.407v2.895
				c0,10.751,1.31,19.4,3.928,25.948c2.619,6.547,6.065,11.406,10.338,14.576c2.206,1.654,4.549,2.688,7.03,3.102
				c1.516,0.413,3.033,0.62,4.549,0.62c0.827,0,1.723-0.069,2.688-0.207c2.481-0.275,4.928-0.861,7.34-1.757
				c2.413-0.896,4.652-1.965,6.72-3.205c4.962-2.757,9.924-6.479,14.887-11.165l0.827,1.034l2.068,3.308
				C627.715,1321.3,620.892,1326.813,614.413,1330.26z M588.982,1243.318c-2.068,0.896-4.032,2.412-5.893,4.549
				s-3.48,4.962-4.859,8.477c-1.378,3.516-2.412,7.822-3.102,12.923h37.836c-0.551-7.857-2.24-14.267-5.065-19.229
				s-6.789-7.581-11.888-7.856c-0.276-0.139-0.621-0.207-1.034-0.207C593.048,1241.975,591.05,1242.423,588.982,1243.318z"/>
			<path id="XMLID_229_" style="fill:#27262E;" d="M725.027,1327.985c1.654,1.792,3.446,2.688,5.376,2.688v4.549
				c-6.065,0-11.234-0.758-15.507-2.274s-7.719-3.997-10.338-7.443c-8.959,7.306-18.677,10.958-29.153,10.958
				c-8.959,0-16.058-2.412-21.296-7.236c-5.375-4.687-8.063-10.889-8.063-18.608c0-5.1,1.103-9.579,3.308-13.438
				c3.722-7.719,10.269-14.06,19.642-19.021c3.997-2.068,8.511-3.825,13.542-5.272c5.031-1.447,10.648-2.516,16.851-3.205h0.207
				c0-1.103-0.034-2.171-0.103-3.204c-0.069-1.034-0.104-2.103-0.104-3.205v-1.24c-0.138-2.206-0.345-4.343-0.62-6.41
				c-0.552-3.584-1.31-6.34-2.274-8.27c-1.241-2.206-2.826-3.998-4.755-5.376c-2.068-1.24-4.204-1.861-6.41-1.861
				c-2.757,0-4.824,0.827-6.203,2.481c-0.827,0.827-1.241,1.86-1.241,3.102c0,1.103,0.345,2.412,1.034,3.928
				c1.378,2.344,2.067,4.618,2.067,6.823c0,2.067-0.414,3.929-1.241,5.583c-1.103,2.205-2.584,3.997-4.445,5.375
				c-1.861,1.379-3.962,2.206-6.306,2.481c-0.276,0-0.517,0.034-0.724,0.104c-0.207,0.068-0.448,0.104-0.724,0.104
				c-3.583,0-6.65-1.172-9.2-3.516c-2.55-2.343-3.963-5.307-4.239-8.891c0-0.138-0.035-0.275-0.104-0.413s-0.103-0.275-0.103-0.413
				v-0.414l0.207-0.413c0-3.584,1.378-6.893,4.135-9.925c2.757-3.17,6.547-5.582,11.372-7.236c4.824-1.792,10.2-2.688,16.127-2.688
				c7.581,0,14.197,1.447,19.849,4.342c5.651,3.032,9.924,7.306,12.819,12.818c0.689,1.517,1.344,3.033,1.964,4.549
				c0.62,1.517,1.068,3.102,1.344,4.756c0.414,2.48,0.62,5.444,0.62,8.891v13.438h0.207v36.39
				C722.546,1323.988,723.374,1326.193,725.027,1327.985z M702.284,1321.782c-1.93-4.135-2.895-9.028-2.895-14.68v-27.498
				c-4.824,1.378-8.959,2.895-12.405,4.548c-3.584,1.931-6.547,4.066-8.891,6.41c-1.516,1.516-2.757,2.963-3.722,4.342
				c-2.895,4.411-4.342,9.304-4.342,14.68c0,5.514,1.585,9.924,4.755,13.232c3.17,3.584,7.03,5.376,11.578,5.376
				C691.05,1328.192,696.357,1326.056,702.284,1321.782z"/>
			<path id="XMLID_227_" style="fill:#27262E;" d="M781.574,1327.675c1.999,1.999,4.377,2.998,7.134,2.998h3.101v4.549h-49.621
				v-4.549h3.102c2.757,0,5.134-0.999,7.133-2.998c1.999-1.998,2.998-4.445,2.998-7.34v-92.833c0-2.896-0.965-5.031-2.895-6.41
				c-1.379-0.965-2.895-1.447-4.549-1.447c-0.827,0-1.723,0.138-2.688,0.414l-3.102,0.827v-4.549l36.389-10.131v114.129
				C778.576,1323.229,779.576,1325.677,781.574,1327.675z"/>
			<path id="XMLID_224_" style="fill:#27262E;" d="M853.01,1335.222h-49.622v-4.549h3.102c2.757,0,5.134-0.999,7.133-2.998
				c1.999-1.998,2.998-4.445,2.998-7.34v-62.854c0-2.895-0.965-5.031-2.895-6.41c-1.379-0.965-2.895-1.447-4.549-1.447
				c-0.827,0-1.723,0.139-2.688,0.414l-3.102,0.827v-4.549l36.39-10.131v84.149c0,2.757,0.826,5.031,2.48,6.823
				c2.067,2.343,4.618,3.515,7.65,3.515h3.102V1335.222z M820.031,1225.744c-2.274-2.274-3.411-4.997-3.411-8.167
				s1.137-5.858,3.411-8.063s4.997-3.308,8.167-3.308c3.171,0,5.893,1.103,8.167,3.308s3.412,4.894,3.412,8.063
				s-1.138,5.893-3.412,8.167s-4.996,3.411-8.167,3.411C825.028,1229.155,822.306,1228.019,820.031,1225.744z"/>
			<path id="XMLID_222_" style="fill:#27262E;" d="M927.342,1303.691c2.964,2.964,4.445,6.582,4.445,10.854
				c0,4.411-1.792,8.201-5.376,11.372c-2.757,2.757-5.72,4.755-8.891,5.995c-3.17,1.241-6.134,2.137-8.891,2.688
				c-2.618,0.413-5.237,0.62-7.856,0.62h-1.86v-0.207c-4.963-0.138-9.649-1.206-14.06-3.204c-4.411-1.999-8.271-4.652-11.578-7.961
				c-3.309-3.308-5.962-7.133-7.961-11.475c-1.998-4.342-3.066-8.994-3.204-13.956h-0.207v-53.137h-13.232v-9.097h13.232v-8.684
				c0-2.896-0.965-5.031-2.895-6.41c-1.379-0.965-2.895-1.447-4.549-1.447c-0.827,0-1.723,0.138-2.688,0.414l-3.102,0.827v-4.549
				l36.39-10.131v29.979h27.705v9.097h-27.705v63.062c0,3.997,1.309,7.442,3.928,10.337c2.619,2.896,5.858,4.48,9.718,4.756
				c2.343,0,3.515-1.172,3.515-3.515v-1.034c-0.275-0.689-0.482-1.413-0.62-2.171s-0.207-1.481-0.207-2.171
				c0-0.551,0.138-1.378,0.414-2.48c0.138-0.689,0.275-1.31,0.413-1.861s0.345-1.172,0.62-1.86c0.965-2.068,2.31-3.86,4.032-5.376
				c1.723-1.517,3.687-2.55,5.893-3.102c0.551-0.138,1.033-0.241,1.447-0.31c0.413-0.069,0.827-0.104,1.24-0.104
				c0.275,0,0.482-0.035,0.62-0.104c0.138-0.069,0.345-0.104,0.62-0.104C920.829,1299.246,924.378,1300.728,927.342,1303.691z"/>
			<path id="XMLID_220_" style="fill:#27262E;" d="M1022.554,1240.734c-2.205,0-4.17,0.654-5.893,1.964s-2.929,2.929-3.618,4.858
				l-0.414,1.447l-33.08,108.134c-1.241,3.722-2.688,6.686-4.343,8.891c-1.653,2.205-3.48,3.894-5.479,5.065
				c-1.999,1.172-4.066,1.965-6.203,2.378c-2.136,0.413-4.376,0.62-6.72,0.62c-2.48,0-5.341-0.551-8.58-1.654
				c-3.239-1.103-6.375-2.757-9.407-4.962s-5.583-4.928-7.65-8.167s-3.101-6.995-3.101-11.268c0-4.273,1.481-7.892,4.444-10.855
				c2.964-2.963,6.582-4.445,10.855-4.445c4.41,0,8.098,1.482,11.062,4.445c2.963,2.964,4.445,6.582,4.445,10.855
				c0,3.859-1.172,7.167-3.516,9.924c-1.103,1.379-1.653,2.619-1.653,3.722c0,0.827,0.275,1.517,0.827,2.067
				c1.24,1.654,2.756,2.481,4.548,2.481s3.688-0.62,5.687-1.861c1.998-1.24,3.963-4.548,5.893-9.924l5.995-19.229h-14.473
				l-1.86-5.996l-0.414-1.033l-0.207-1.034l-23.363-76.087l-0.413-1.653l-0.207-0.414l-0.62-1.86
				c-0.689-1.93-1.896-3.48-3.618-4.652s-3.618-1.757-5.686-1.757h-3.102v-4.549h47.347v4.549h-3.101
				c-2.619,0-4.549,0.826-5.789,2.48c-0.965,1.24-1.448,2.619-1.448,4.136c0,0.688,0.139,1.516,0.414,2.48l21.296,69.677
				l20.883-68.437v-0.413l0.413-0.827c0.275-0.965,0.413-1.792,0.413-2.48c0-1.517-0.413-2.896-1.24-4.136
				c-1.378-1.654-3.377-2.48-5.996-2.48h-3.101v-4.549h32.874v4.549H1022.554z"/>
		</g>
	</g>
	<g id="XMLID_5512_">
		<path id="XMLID_10103_" style="fill:#232323;" d="M704.341,269.614c0,0,1.592-1.242,4.057-3.665
			c1.225-1.219,2.644-2.747,4.17-4.552c1.472-1.85,3.096-3.947,4.554-6.4c1.44-2.451,2.832-5.177,3.878-8.177
			c0.977-3.032,1.799-6.261,2.021-9.681l0.048-0.641l0.016-0.256l0.012-0.348c0.008-0.456,0.047-0.985,0.022-1.343
			c-0.004-0.766-0.05-1.639-0.133-2.467c-0.163-1.669-0.476-3.322-1.024-4.922c-1.029-3.217-2.889-6.241-5.183-9.174
			c-2.304-2.918-4.998-5.76-7.642-8.732c-2.61-3.004-5.179-6.183-7.22-9.649c-2.073-3.444-3.41-7.24-4.084-10.877
			c-0.716-3.649-0.577-7.147-0.221-10.242c0.36-3.116,1.126-5.856,1.876-8.217c0.748-2.37,1.601-4.351,2.331-5.957
			c0.72-1.607,1.377-2.825,1.823-3.655c0.455-0.821,0.698-1.265,0.698-1.265s-0.117,0.493-0.34,1.407
			c-0.245,0.897-0.536,2.246-0.921,3.935c-0.392,1.685-0.736,3.758-1.088,6.112c-0.331,2.354-0.531,5.014-0.511,7.857
			c0.038,2.843,0.437,5.863,1.291,8.879c0.844,3.024,2.342,5.966,4.261,8.82c1.91,2.855,4.367,5.566,7.045,8.32
			c2.636,2.791,5.525,5.63,8.165,8.947c2.654,3.269,4.998,7.158,6.297,11.426c0.654,2.127,1.009,4.325,1.148,6.478
			c0.081,1.086,0.061,2.121,0.004,3.245c-0.016,0.589-0.068,1.004-0.112,1.484l-0.031,0.348l-0.058,0.442l-0.107,0.756
			c-0.563,3.995-1.693,7.769-3.291,11.068c-1.589,3.301-3.44,6.203-5.487,8.581c-4.017,4.826-8.24,7.839-11.288,9.645
			C706.261,268.971,704.341,269.614,704.341,269.614z"/>
		<path id="XMLID_6631_" style="fill:#232323;" d="M850.323,411.372c2.892-0.38,5.697-4.072,8.414-4.409
			c36.798-4.642,65.857-9.972,61.4-59.022c-1.631-18.144-8.327-31.664-19.872-38.545c-8.142-4.859-17.318-5.975-25.373-5.442
			c-0.457-4.696-1.098-6.954-1.946-13.954h-53.638c-0.022,0-0.576-6.368-1.674-9.238c-1.511-3.957-3.859-7.597-6.37-10.652
			c-5.012-6.164-10.599-11.186-14.295-16.741c-1.848-2.761-3.337-5.604-4.229-8.485c-0.87-2.859-1.381-5.737-1.413-8.444
			c-0.065-2.707,0.12-5.249,0.478-7.478c0.359-2.239,0.75-4.212,1.163-5.81c0.402-1.598,0.739-2.883,1-3.731
			c0.217-0.75,0.348-1.197,0.37-1.295c-0.054,0.087-0.293,0.489-0.696,1.152c-0.457,0.783-1.12,1.924-1.848,3.435
			c-0.728,1.522-1.609,3.402-2.337,5.664c-0.739,2.261-1.478,4.892-1.772,7.881c-0.315,2.979-0.326,6.338,0.435,9.795
			c0.739,3.446,2.087,6.99,4.033,10.262c1.924,3.283,4.283,6.327,6.707,9.251c2.479,2.903,5.012,5.696,7.273,8.512
			c2.239,2.837,4.218,6.02,5.392,9.053c0.881,2.131,1.348,6.868,1.479,6.868h-158.63c-1.772,7-2.729,25.845-2.729,36.064
			c0,57.943,30.232,97.936,72.695,132.936h-71.292c-4.74,0-8.588,2.26-8.588,7c0,4.751,3.848,7,8.588,7h229.26
			c4.74,0,8.588-2.249,8.588-7c0-4.74-3.848-7-8.588-7h-79.304C821.646,438,837.931,429.635,850.323,411.372z M875.664,319.097
			c0-0.207,0-0.413-0.011-0.62c5.588-0.402,11.719,0.185,16.817,3.25c7.077,4.24,11.262,12.969,12.437,25.938
			c3.022,33.331-10.034,35.961-44.897,40.386C869.957,367.864,875.664,344.285,875.664,319.097z"/>
		<path id="XMLID_6610_" style="fill:#232323;" d="M751.126,224.247c0,0,1.496-1.228,3.87-3.535
			c2.345-2.322,5.578-5.744,8.714-10.232c1.512-2.282,3.076-4.761,4.331-7.546c1.261-2.775,2.28-5.795,2.889-8.966l0.211-1.198
			l0.139-1.18l0.149-1.345l0.016-1.112c0.072-1.472-0.108-3.161-0.352-4.729c-0.589-3.195-1.847-6.354-3.49-9.512
			c-3.321-6.275-7.992-12.656-10.696-19.841c-1.378-3.567-2.125-7.29-2.353-10.805c-0.243-3.517,0.157-6.844,0.848-9.755
			c0.278-1.478,0.766-2.827,1.149-4.114c0.508-1.254,0.941-2.455,1.421-3.538c0.504-1.084,0.971-2.089,1.437-2.998
			c0.506-0.886,0.973-1.701,1.396-2.431c0.808-1.484,1.655-2.526,2.129-3.285c0.517-0.736,0.788-1.124,0.788-1.124
			s-0.149,0.455-0.436,1.311c-0.273,0.852-0.748,2.071-1.212,3.661c-0.239,0.79-0.505,1.665-0.79,2.616
			c-0.237,0.953-0.495,1.986-0.77,3.094c-0.256,1.102-0.446,2.294-0.686,3.523c-0.101,1.253-0.392,2.533-0.43,3.895
			c-0.255,2.703-0.068,5.602,0.4,8.559c0.489,2.968,1.536,5.953,2.914,8.952c1.421,2.989,3.239,5.973,5.239,9.058
			c1.975,3.082,4.148,6.305,6.042,9.852c1.912,3.535,3.464,7.536,4.142,11.72c0.261,2.125,0.426,4.148,0.249,6.337l-0.133,1.619
			l-0.223,1.349l-0.262,1.49l-0.352,1.424c-0.993,3.758-2.523,7.204-4.367,10.156c-1.809,2.986-3.85,5.539-5.933,7.672
			c-2.079,2.133-4.12,3.909-6.054,5.308c-1.904,1.435-3.657,2.529-5.147,3.355C752.967,223.626,751.126,224.247,751.126,224.247z"/>
	</g>
</g>
<g id="XMLID_19_">
</g>
<g id="XMLID_76_">
</g>
<g id="XMLID_77_">
</g>
<g id="XMLID_78_">
</g>
<g id="XMLID_79_">
</g>
<g id="XMLID_80_">
</g>
</svg>
